<svg xmlns="http://www.w3.org/2000/svg" x="0px" y="0px"
width="48" height="48"
viewBox="0 0 172 172"
style=" fill:#000000;"><g fill="none" fill-rule="nonzero" stroke="none" stroke-width="1" stroke-linecap="butt" stroke-linejoin="miter" stroke-miterlimit="10" stroke-dasharray="" stroke-dashoffset="0" font-family="none" font-weight="none" font-size="none" text-anchor="none" style="mix-blend-mode: normal"><path d="M0,172v-172h172v172z" fill="none"></path><g><path d="M17.91667,136.16667v-86h136.16667v86c0,7.88333 -6.45,14.33333 -14.33333,14.33333h-107.5c-7.88333,0 -14.33333,-6.45 -14.33333,-14.33333z" fill="#e9e1e1"></path><path d="M154.08333,35.83333v21.5h-136.16667v-21.5c0,-7.88333 6.45,-14.33333 14.33333,-14.33333h107.5c7.88333,0 14.33333,6.45 14.33333,14.33333z" fill="#7b2bed"></path><path d="M118.25,25.08333c-5.93706,0 -10.75,4.81294 -10.75,10.75c0,5.93706 4.81294,10.75 10.75,10.75c5.93706,0 10.75,-4.81294 10.75,-10.75c0,-5.93706 -4.81294,-10.75 -10.75,-10.75zM53.75,25.08333c-5.93706,0 -10.75,4.81294 -10.75,10.75c0,5.93706 4.81294,10.75 10.75,10.75c5.93706,0 10.75,-4.81294 10.75,-10.75c0,-5.93706 -4.81294,-10.75 -10.75,-10.75z" fill="#9a58f3"></path><path d="M118.25,10.75c-3.94167,0 -7.16667,3.225 -7.16667,7.16667v17.91667c0,3.94167 3.225,7.16667 7.16667,7.16667c3.94167,0 7.16667,-3.225 7.16667,-7.16667v-17.91667c0,-3.94167 -3.225,-7.16667 -7.16667,-7.16667zM53.75,10.75c-3.94167,0 -7.16667,3.225 -7.16667,7.16667v17.91667c0,3.94167 3.225,7.16667 7.16667,7.16667c3.94167,0 7.16667,-3.225 7.16667,-7.16667v-17.91667c0,-3.94167 -3.225,-7.16667 -7.16667,-7.16667z" fill="#b0bec5"></path><g fill="#90a4ae"><path d="M46.58333,71.66667h14.33333v14.33333h-14.33333zM68.08333,71.66667h14.33333v14.33333h-14.33333zM89.58333,71.66667h14.33333v14.33333h-14.33333zM111.08333,71.66667h14.33333v14.33333h-14.33333zM46.58333,93.16667h14.33333v14.33333h-14.33333zM68.08333,93.16667h14.33333v14.33333h-14.33333zM89.58333,93.16667h14.33333v14.33333h-14.33333zM111.08333,93.16667h14.33333v14.33333h-14.33333zM46.58333,114.66667h14.33333v14.33333h-14.33333zM68.08333,114.66667h14.33333v14.33333h-14.33333zM89.58333,114.66667h14.33333v14.33333h-14.33333zM111.08333,114.66667h14.33333v14.33333h-14.33333z"></path></g></g></g></svg>
